<svg id="visual" viewBox="0 0 900 600" width="900" height="600" xmlns="http://www.w3.org/2000/svg" xmlns:xlink="http://www.w3.org/1999/xlink" version="1.1"><g transform="translate(831.8084043219096 12.289063989848245)"><path d="M266.7 -358.3C346.2 -363.8 411.9 -290.9 405.1 -212.4C398.2 -133.9 318.9 -49.7 259.4 4.1C200 57.9 160.5 81.3 135.6 126.8C110.7 172.2 100.4 239.6 61.9 284.7C23.4 329.7 -43.4 352.5 -74.9 315.6C-106.5 278.8 -102.9 182.4 -126.4 125.9C-149.9 69.4 -200.7 52.8 -233.9 15.7C-267.1 -21.3 -282.7 -78.8 -254.7 -106.4C-226.7 -134 -155 -131.8 -105.2 -139.9C-55.5 -148 -27.8 -166.5 32.9 -217.7C93.5 -268.9 187.1 -352.7 266.7 -358.3" fill="#7D9D9C"></path></g></svg>