<svg id="visual" viewBox="0 0 900 600" width="900" height="600" xmlns="http://www.w3.org/2000/svg" xmlns:xlink="http://www.w3.org/1999/xlink" version="1.1"><g transform="translate(920.6504722802903 571.8559653158293)"><path d="M114 -177.5C149.4 -177.1 180.8 -149.8 178.6 -115.7C176.5 -81.7 140.7 -40.8 116.2 -14.2C91.7 12.5 78.3 25 85.8 68.3C93.3 111.6 121.7 185.7 110.8 215.6C100 245.5 50 231.3 4.4 223.6C-41.2 216 -82.3 214.9 -96.2 186.8C-110 158.6 -96.6 103.3 -121.8 67.7C-147.1 32 -211 16 -219.1 -4.7C-227.2 -25.3 -179.4 -50.7 -148.3 -76.1C-117.1 -101.5 -102.5 -126.9 -80.6 -135.1C-58.7 -143.3 -29.3 -134.1 5 -142.8C39.3 -151.5 78.7 -177.9 114 -177.5" fill="#7D9D9C"></path></g></svg>